<?xml version="1.0" encoding="iso-8859-1"?>
<!-- Uploaded to: SVG Repo, www.svgrepo.com, Generator: SVG Repo Mixer Tools -->
<svg version="1.1" id="Layer_1" xmlns="http://www.w3.org/2000/svg" xmlns:xlink="http://www.w3.org/1999/xlink" 
	 viewBox="0 0 512 512" xml:space="preserve">
<circle style="fill:#FF5050;" cx="256" cy="256" r="241.371"/>
<path d="M256,512C114.842,512,0,397.158,0,256S114.842,0,256,0s256,114.842,256,256S397.158,512,256,512z M256,29.257
	C130.974,29.257,29.257,130.974,29.257,256S130.974,482.743,256,482.743S482.743,381.026,482.743,256S381.026,29.257,256,29.257z"/>
<path d="M266.243,445.765c-8.078,0-14.629-6.551-14.629-14.629c0-8.078,6.551-14.636,14.629-14.636s14.629,6.545,14.629,14.623
	v0.013C280.871,439.214,274.321,445.765,266.243,445.765z"/>
<path d="M314.511,438.126c-6.229,0-12.001-4.01-13.957-10.268c-2.411-7.711,1.886-15.917,9.596-18.327
	c64.49-20.163,107.82-79.151,107.82-146.786c0-8.078,6.551-14.629,14.629-14.629c8.078,0,14.629,6.551,14.629,14.629
	c0,39.784-12.548,77.616-36.289,109.409c-22.945,30.723-55.637,53.914-92.058,65.3C317.428,437.909,315.957,438.126,314.511,438.126
	z"/>
<rect x="168.229" y="168.229" style="fill:#7BFFCD;" width="57.11" height="175.543"/>
<path d="M225.344,358.4h-57.116c-8.078,0-14.629-6.551-14.629-14.629V168.229c0-8.078,6.551-14.629,14.629-14.629h57.116
	c8.078,0,14.629,6.551,14.629,14.629v175.543C239.973,351.849,233.422,358.4,225.344,358.4z M182.857,329.143h27.859V182.857
	h-27.859V329.143z"/>
<rect x="283.765" y="168.229" style="fill:#7BFFCD;" width="57.11" height="175.543"/>
<path d="M340.878,358.4h-57.116c-8.078,0-14.629-6.551-14.629-14.629V168.229c0-8.078,6.551-14.629,14.629-14.629h57.116
	c8.078,0,14.629,6.551,14.629,14.629v175.543C355.506,351.849,348.957,358.4,340.878,358.4z M298.392,329.143h27.859V182.857
	h-27.859V329.143z"/>
</svg>